# Blender v2.76 (sub 0) OBJ File: ''
# www.blender.org
mtllib 2.mtl
o 2
v 0.531238 0.036874 -0.218561
v 0.538238 0.036874 -0.218550
v 0.561611 0.036874 -0.199202
v 0.586156 0.036874 -0.178905
v 0.611673 0.036874 -0.157918
v 0.637959 0.036874 -0.136503
v 0.664815 0.036874 -0.114920
v 0.692039 0.036874 -0.093430
v 0.719430 0.036874 -0.072295
v 0.746788 0.036874 -0.051774
v 0.773910 0.036874 -0.032128
v 0.800597 0.036874 -0.013619
v 0.826648 0.036874 0.003494
v 0.851860 0.036874 0.018949
v 0.865186 0.036874 0.026637
v 0.877791 0.036874 0.033657
v 0.889827 0.036874 0.040010
v 0.901447 0.036874 0.045695
v 0.912805 0.036874 0.050713
v 0.924053 0.036874 0.055064
v 0.935343 0.036874 0.058749
v 0.946829 0.036874 0.061767
v 0.958664 0.036874 0.064119
v 0.970999 0.036874 0.065805
v 0.983988 0.036874 0.066826
v 0.997784 0.036874 0.067181
v 1.016059 0.036874 0.066188
v 1.033313 0.036874 0.063224
v 1.049438 0.036874 0.058404
v 1.064327 0.036874 0.051843
v 1.077870 0.036874 0.043654
v 1.089962 0.036874 0.033953
v 1.100493 0.036874 0.022854
v 1.109356 0.036874 0.010470
v 1.116443 0.036874 -0.003083
v 1.121646 0.036874 -0.017691
v 1.124857 0.036874 -0.033240
v 1.125970 0.036874 -0.049615
v 1.125516 0.036874 -0.061889
v 1.124055 0.036874 -0.074220
v 1.121498 0.036874 -0.086622
v 1.117752 0.036874 -0.099109
v 1.112730 0.036874 -0.111696
v 1.106339 0.036874 -0.124396
v 1.098490 0.036874 -0.137223
v 1.089093 0.036874 -0.150192
v 1.078057 0.036874 -0.163316
v 1.065292 0.036874 -0.176610
v 1.050708 0.036874 -0.190086
v 1.034215 0.036874 -0.203761
v 1.157215 0.036874 -0.203565
v 1.167715 0.036874 -0.189877
v 1.177264 0.036874 -0.176329
v 1.185869 0.036874 -0.162894
v 1.193536 0.036874 -0.149544
v 1.200273 0.036874 -0.136251
v 1.206087 0.036874 -0.122987
v 1.210983 0.036874 -0.109725
v 1.214970 0.036874 -0.096436
v 1.218055 0.036874 -0.083093
v 1.220243 0.036874 -0.069668
v 1.221542 0.036874 -0.056134
v 1.221959 0.036874 -0.042462
v 1.220126 0.036874 -0.012534
v 1.214838 0.036874 0.015643
v 1.206262 0.036874 0.041904
v 1.194564 0.036874 0.066087
v 1.179911 0.036874 0.088030
v 1.162470 0.036874 0.107569
v 1.142408 0.036874 0.124541
v 1.119892 0.036874 0.138783
v 1.095089 0.036874 0.150133
v 1.068166 0.036874 0.158428
v 1.039290 0.036874 0.163504
v 1.008628 0.036874 0.165199
v 0.981193 0.036874 0.163887
v 0.954145 0.036874 0.159964
v 0.927115 0.036874 0.153319
v 0.899736 0.036874 0.143840
v 0.871639 0.036874 0.131416
v 0.842456 0.036874 0.115934
v 0.811820 0.036874 0.097284
v 0.779363 0.036874 0.075352
v 0.744717 0.036874 0.050029
v 0.707514 0.036874 0.021201
v 0.667386 0.036874 -0.011243
v 0.623966 0.036874 -0.047414
v 0.623550 0.036874 0.213586
v 0.530550 0.036874 0.213438
v 0.531238 -0.047126 -0.218561
v 0.538238 -0.047126 -0.218550
v 0.561611 -0.047126 -0.199202
v 0.586156 -0.047126 -0.178905
v 0.611673 -0.047126 -0.157918
v 0.637959 -0.047126 -0.136503
v 0.664815 -0.047126 -0.114920
v 0.692039 -0.047126 -0.093430
v 0.719430 -0.047126 -0.072295
v 0.746788 -0.047126 -0.051774
v 0.773910 -0.047126 -0.032128
v 0.800597 -0.047126 -0.013619
v 0.826648 -0.047126 0.003494
v 0.851860 -0.047126 0.018949
v 0.865186 -0.047126 0.026637
v 0.877791 -0.047126 0.033657
v 0.889827 -0.047126 0.040010
v 0.901447 -0.047126 0.045695
v 0.912805 -0.047126 0.050713
v 0.924053 -0.047126 0.055064
v 0.935343 -0.047126 0.058749
v 0.946829 -0.047126 0.061767
v 0.958664 -0.047126 0.064119
v 0.970999 -0.047126 0.065805
v 0.983988 -0.047126 0.066826
v 0.997784 -0.047126 0.067181
v 1.016059 -0.047126 0.066188
v 1.033313 -0.047126 0.063224
v 1.049438 -0.047126 0.058404
v 1.064327 -0.047126 0.051843
v 1.077870 -0.047126 0.043654
v 1.089962 -0.047126 0.033953
v 1.100493 -0.047126 0.022854
v 1.109356 -0.047126 0.010470
v 1.116443 -0.047126 -0.003083
v 1.121646 -0.047126 -0.017691
v 1.124857 -0.047126 -0.033240
v 1.125970 -0.047126 -0.049615
v 1.125516 -0.047126 -0.061889
v 1.124055 -0.047126 -0.074220
v 1.121498 -0.047126 -0.086622
v 1.117752 -0.047126 -0.099109
v 1.112730 -0.047126 -0.111696
v 1.106339 -0.047126 -0.124396
v 1.098490 -0.047126 -0.137223
v 1.089093 -0.047126 -0.150192
v 1.078057 -0.047126 -0.163316
v 1.065292 -0.047126 -0.176610
v 1.050708 -0.047126 -0.190086
v 1.034215 -0.047126 -0.203761
v 1.157215 -0.047126 -0.203565
v 1.167715 -0.047126 -0.189877
v 1.177264 -0.047126 -0.176329
v 1.185869 -0.047126 -0.162894
v 1.193536 -0.047126 -0.149544
v 1.200273 -0.047126 -0.136251
v 1.206087 -0.047126 -0.122987
v 1.210983 -0.047126 -0.109725
v 1.214970 -0.047126 -0.096436
v 1.218055 -0.047126 -0.083093
v 1.220243 -0.047126 -0.069668
v 1.221542 -0.047126 -0.056134
v 1.221959 -0.047126 -0.042462
v 1.220126 -0.047126 -0.012534
v 1.214838 -0.047126 0.015643
v 1.206262 -0.047126 0.041904
v 1.194564 -0.047126 0.066087
v 1.179911 -0.047126 0.088030
v 1.162470 -0.047126 0.107569
v 1.142408 -0.047126 0.124541
v 1.119892 -0.047126 0.138783
v 1.095089 -0.047126 0.150133
v 1.068166 -0.047126 0.158428
v 1.039290 -0.047126 0.163504
v 1.008628 -0.047126 0.165199
v 0.981193 -0.047126 0.163887
v 0.954145 -0.047126 0.159964
v 0.927115 -0.047126 0.153319
v 0.899736 -0.047126 0.143840
v 0.871639 -0.047126 0.131416
v 0.842456 -0.047126 0.115934
v 0.811820 -0.047126 0.097284
v 0.779363 -0.047126 0.075352
v 0.744717 -0.047126 0.050029
v 0.707514 -0.047126 0.021201
v 0.667386 -0.047126 -0.011243
v 0.623966 -0.047126 -0.047414
v 0.623550 -0.047126 0.213586
v 0.530550 -0.047126 0.213438
v 0.531238 -0.047126 -0.218561
v 0.531238 0.036874 -0.218561
v 0.538238 -0.047126 -0.218550
v 0.538238 0.036874 -0.218550
v 0.561611 -0.047126 -0.199202
v 0.561611 0.036874 -0.199202
v 0.586156 -0.047126 -0.178905
v 0.586156 0.036874 -0.178905
v 0.611673 -0.047126 -0.157918
v 0.611673 0.036874 -0.157918
v 0.637959 -0.047126 -0.136503
v 0.637959 0.036874 -0.136503
v 0.664815 -0.047126 -0.114920
v 0.664815 0.036874 -0.114920
v 0.692039 -0.047126 -0.093430
v 0.692039 0.036874 -0.093430
v 0.719430 -0.047126 -0.072295
v 0.719430 0.036874 -0.072295
v 0.746788 -0.047126 -0.051774
v 0.746788 0.036874 -0.051774
v 0.773910 -0.047126 -0.032128
v 0.773910 0.036874 -0.032128
v 0.800597 -0.047126 -0.013619
v 0.800597 0.036874 -0.013619
v 0.826648 -0.047126 0.003494
v 0.826648 0.036874 0.003494
v 0.851860 -0.047126 0.018949
v 0.851860 0.036874 0.018949
v 0.865186 -0.047126 0.026637
v 0.865186 0.036874 0.026637
v 0.877791 -0.047126 0.033657
v 0.877791 0.036874 0.033657
v 0.889827 -0.047126 0.040010
v 0.889827 0.036874 0.040010
v 0.901447 -0.047126 0.045695
v 0.901447 0.036874 0.045695
v 0.912805 -0.047126 0.050713
v 0.912805 0.036874 0.050713
v 0.924053 -0.047126 0.055064
v 0.924053 0.036874 0.055064
v 0.935343 -0.047126 0.058749
v 0.935343 0.036874 0.058749
v 0.946829 -0.047126 0.061767
v 0.946829 0.036874 0.061767
v 0.958664 -0.047126 0.064119
v 0.958664 0.036874 0.064119
v 0.970999 -0.047126 0.065805
v 0.970999 0.036874 0.065805
v 0.983988 -0.047126 0.066826
v 0.983988 0.036874 0.066826
v 0.997784 -0.047126 0.067181
v 0.997784 0.036874 0.067181
v 1.016059 -0.047126 0.066188
v 1.016059 0.036874 0.066188
v 1.033313 -0.047126 0.063224
v 1.033313 0.036874 0.063224
v 1.049438 -0.047126 0.058404
v 1.049438 0.036874 0.058404
v 1.064327 -0.047126 0.051843
v 1.064327 0.036874 0.051843
v 1.077870 -0.047126 0.043654
v 1.077870 0.036874 0.043654
v 1.089962 -0.047126 0.033953
v 1.089962 0.036874 0.033953
v 1.100493 -0.047126 0.022854
v 1.100493 0.036874 0.022854
v 1.109356 -0.047126 0.010470
v 1.109356 0.036874 0.010470
v 1.116443 -0.047126 -0.003083
v 1.116443 0.036874 -0.003083
v 1.121646 -0.047126 -0.017691
v 1.121646 0.036874 -0.017691
v 1.124857 -0.047126 -0.033240
v 1.124857 0.036874 -0.033240
v 1.125970 -0.047126 -0.049615
v 1.125970 0.036874 -0.049615
v 1.125516 -0.047126 -0.061889
v 1.125516 0.036874 -0.061889
v 1.124055 -0.047126 -0.074220
v 1.124055 0.036874 -0.074220
v 1.121498 -0.047126 -0.086622
v 1.121498 0.036874 -0.086622
v 1.117752 -0.047126 -0.099109
v 1.117752 0.036874 -0.099109
v 1.112730 -0.047126 -0.111696
v 1.112730 0.036874 -0.111696
v 1.106339 -0.047126 -0.124396
v 1.106339 0.036874 -0.124396
v 1.098490 -0.047126 -0.137223
v 1.098490 0.036874 -0.137223
v 1.089093 -0.047126 -0.150192
v 1.089093 0.036874 -0.150192
v 1.078057 -0.047126 -0.163316
v 1.078057 0.036874 -0.163316
v 1.065292 -0.047126 -0.176610
v 1.065292 0.036874 -0.176610
v 1.050708 -0.047126 -0.190086
v 1.050708 0.036874 -0.190086
v 1.034215 -0.047126 -0.203761
v 1.034215 0.036874 -0.203761
v 1.157215 -0.047126 -0.203565
v 1.157215 0.036874 -0.203565
v 1.167715 -0.047126 -0.189877
v 1.167715 0.036874 -0.189877
v 1.177264 -0.047126 -0.176329
v 1.177264 0.036874 -0.176329
v 1.185869 -0.047126 -0.162894
v 1.185869 0.036874 -0.162894
v 1.193536 -0.047126 -0.149544
v 1.193536 0.036874 -0.149544
v 1.200273 -0.047126 -0.136251
v 1.200273 0.036874 -0.136251
v 1.206087 -0.047126 -0.122987
v 1.206087 0.036874 -0.122987
v 1.210983 -0.047126 -0.109725
v 1.210983 0.036874 -0.109725
v 1.214970 -0.047126 -0.096436
v 1.214970 0.036874 -0.096436
v 1.218055 -0.047126 -0.083093
v 1.218055 0.036874 -0.083093
v 1.220243 -0.047126 -0.069668
v 1.220243 0.036874 -0.069668
v 1.221542 -0.047126 -0.056134
v 1.221542 0.036874 -0.056134
v 1.221959 -0.047126 -0.042462
v 1.221959 0.036874 -0.042462
v 1.220126 -0.047126 -0.012534
v 1.220126 0.036874 -0.012534
v 1.214838 -0.047126 0.015643
v 1.214838 0.036874 0.015643
v 1.206262 -0.047126 0.041904
v 1.206262 0.036874 0.041904
v 1.194564 -0.047126 0.066087
v 1.194564 0.036874 0.066087
v 1.179911 -0.047126 0.088030
v 1.179911 0.036874 0.088030
v 1.162470 -0.047126 0.107569
v 1.162470 0.036874 0.107569
v 1.142408 -0.047126 0.124541
v 1.142408 0.036874 0.124541
v 1.119892 -0.047126 0.138783
v 1.119892 0.036874 0.138783
v 1.095089 -0.047126 0.150133
v 1.095089 0.036874 0.150133
v 1.068166 -0.047126 0.158428
v 1.068166 0.036874 0.158428
v 1.039290 -0.047126 0.163504
v 1.039290 0.036874 0.163504
v 1.008628 -0.047126 0.165199
v 1.008628 0.036874 0.165199
v 0.981193 -0.047126 0.163887
v 0.981193 0.036874 0.163887
v 0.954145 -0.047126 0.159964
v 0.954145 0.036874 0.159964
v 0.927115 -0.047126 0.153319
v 0.927115 0.036874 0.153319
v 0.899736 -0.047126 0.143840
v 0.899736 0.036874 0.143840
v 0.871639 -0.047126 0.131416
v 0.871639 0.036874 0.131416
v 0.842456 -0.047126 0.115934
v 0.842456 0.036874 0.115934
v 0.811820 -0.047126 0.097284
v 0.811820 0.036874 0.097284
v 0.779363 -0.047126 0.075352
v 0.779363 0.036874 0.075352
v 0.744717 -0.047126 0.050029
v 0.744717 0.036874 0.050029
v 0.707514 -0.047126 0.021201
v 0.707514 0.036874 0.021201
v 0.667386 -0.047126 -0.011243
v 0.667386 0.036874 -0.011243
v 0.623966 -0.047126 -0.047414
v 0.623966 0.036874 -0.047414
v 0.623550 -0.047126 0.213586
v 0.623550 0.036874 0.213586
v 0.530550 -0.047126 0.213438
v 0.530550 0.036874 0.213438
vn 0.000000 1.000000 0.000000
vn 0.000000 -1.000000 0.000000
vn -0.706000 0.000000 -0.708200
vn 0.339600 0.000000 -0.940500
vn 0.637400 0.000000 -0.770500
vn 0.636200 0.000000 -0.771500
vn 0.633400 0.000000 -0.773800
vn 0.629000 0.000000 -0.777400
vn 0.623000 0.000000 -0.782200
vn 0.615300 0.000000 -0.788300
vn 0.605500 0.000000 -0.795800
vn 0.593300 0.000000 -0.804900
vn 0.578300 0.000000 -0.815800
vn 0.559500 0.000000 -0.828800
vn 0.535900 0.000000 -0.844300
vn 0.511200 0.000000 -0.859400
vn 0.493100 0.000000 -0.869900
vn 0.476700 0.000000 -0.879100
vn 0.453100 0.000000 -0.891400
vn 0.421900 0.000000 -0.906600
vn 0.382500 0.000000 -0.923900
vn 0.335600 0.000000 -0.942000
vn 0.282300 0.000000 -0.959300
vn 0.224600 0.000000 -0.974400
vn 0.165300 0.000000 -0.986200
vn 0.106900 0.000000 -0.994300
vn 0.052000 0.000000 -0.998600
vn -0.014300 0.000000 -0.999900
vn -0.112000 0.000000 -0.993700
vn -0.228200 0.000000 -0.973600
vn -0.345500 0.000000 -0.938400
vn -0.461300 0.000000 -0.887200
vn -0.572800 0.000000 -0.819600
vn -0.677200 0.000000 -0.735800
vn -0.771100 0.000000 -0.636600
vn -0.851700 0.000000 -0.523900
vn -0.916300 0.000000 -0.400400
vn -0.963000 0.000000 -0.269500
vn -0.990800 0.000000 -0.135300
vn -0.999900 0.000000 -0.015400
vn -0.997000 0.000000 0.077300
vn -0.987100 0.000000 0.159900
vn -0.969500 0.000000 0.244800
vn -0.944200 0.000000 0.329300
vn -0.911900 0.000000 0.410400
vn -0.873900 0.000000 0.486100
vn -0.832000 0.000000 0.554700
vn -0.788000 0.000000 0.615600
vn -0.743700 0.000000 0.668400
vn -0.700300 0.000000 0.713800
vn -0.658700 0.000000 0.752400
vn -0.940400 0.000000 -0.340000
vn 0.443000 0.000000 -0.896500
vn 0.805500 0.000000 -0.592500
vn 0.829900 0.000000 -0.557800
vn 0.854900 0.000000 -0.518800
vn 0.879800 0.000000 -0.475200
vn 0.904300 0.000000 -0.426900
vn 0.927400 0.000000 -0.374000
vn 0.948400 0.000000 -0.317000
vn 0.966600 0.000000 -0.256400
vn 0.981200 0.000000 -0.193100
vn 0.991700 0.000000 -0.128300
vn 0.998000 0.000000 -0.063000
vn 0.999900 0.000000 0.015300
vn 0.992400 0.000000 0.123000
vn 0.968700 0.000000 0.248000
vn 0.927500 0.000000 0.373800
vn 0.868000 0.000000 0.496600
vn 0.790700 0.000000 0.612100
vn 0.697700 0.000000 0.716400
vn 0.591600 0.000000 0.806200
vn 0.476400 0.000000 0.879200
vn 0.356000 0.000000 0.934400
vn 0.234200 0.000000 0.972200
vn 0.114400 0.000000 0.993400
vn 0.003700 0.000000 1.000000
vn -0.095700 0.000000 0.995400
vn -0.191300 0.000000 0.981500
vn -0.283200 0.000000 0.959000
vn -0.366100 0.000000 0.930600
vn -0.436800 0.000000 0.899500
vn -0.494500 0.000000 0.869100
vn -0.540100 0.000000 0.841600
vn -0.575100 0.000000 0.818100
vn -0.601300 0.000000 0.799000
vn -0.620600 0.000000 0.784100
vn -0.634400 0.000000 0.773000
vn 0.423500 0.000000 0.905900
vn 0.706000 0.000000 0.708200
vn -0.708200 0.000000 0.706000
usemtl Material.001
s off
f 62//1 64//1 63//1
f 61//1 64//1 62//1
f 60//1 64//1 61//1
f 60//1 65//1 64//1
f 59//1 65//1 60//1
f 59//1 66//1 65//1
f 58//1 66//1 59//1
f 57//1 66//1 58//1
f 57//1 67//1 66//1
f 56//1 67//1 57//1
f 55//1 67//1 56//1
f 55//1 68//1 67//1
f 54//1 68//1 55//1
f 53//1 68//1 54//1
f 53//1 69//1 68//1
f 52//1 69//1 53//1
f 51//1 69//1 52//1
f 51//1 70//1 69//1
f 50//1 49//1 51//1
f 49//1 48//1 51//1
f 48//1 47//1 51//1
f 47//1 46//1 51//1
f 46//1 45//1 51//1
f 45//1 44//1 51//1
f 44//1 43//1 51//1
f 43//1 42//1 51//1
f 42//1 41//1 51//1
f 41//1 40//1 51//1
f 40//1 39//1 51//1
f 39//1 70//1 51//1
f 39//1 38//1 70//1
f 38//1 71//1 70//1
f 37//1 71//1 38//1
f 36//1 71//1 37//1
f 35//1 71//1 36//1
f 35//1 72//1 71//1
f 34//1 72//1 35//1
f 33//1 72//1 34//1
f 32//1 72//1 33//1
f 32//1 73//1 72//1
f 31//1 73//1 32//1
f 30//1 73//1 31//1
f 30//1 74//1 73//1
f 29//1 74//1 30//1
f 28//1 74//1 29//1
f 28//1 75//1 74//1
f 27//1 75//1 28//1
f 26//1 75//1 27//1
f 26//1 76//1 75//1
f 25//1 76//1 26//1
f 24//1 76//1 25//1
f 24//1 77//1 76//1
f 23//1 77//1 24//1
f 22//1 77//1 23//1
f 22//1 78//1 77//1
f 21//1 78//1 22//1
f 20//1 78//1 21//1
f 20//1 79//1 78//1
f 19//1 79//1 20//1
f 18//1 79//1 19//1
f 17//1 79//1 18//1
f 17//1 80//1 79//1
f 16//1 80//1 17//1
f 15//1 80//1 16//1
f 15//1 81//1 80//1
f 14//1 81//1 15//1
f 13//1 81//1 14//1
f 13//1 82//1 81//1
f 12//1 82//1 13//1
f 12//1 83//1 82//1
f 11//1 83//1 12//1
f 11//1 84//1 83//1
f 10//1 84//1 11//1
f 9//1 84//1 10//1
f 9//1 85//1 84//1
f 8//1 85//1 9//1
f 8//1 86//1 85//1
f 7//1 86//1 8//1
f 7//1 87//1 86//1
f 6//1 87//1 7//1
f 5//1 87//1 6//1
f 5//1 88//1 87//1
f 5//1 89//1 88//1
f 4//1 89//1 5//1
f 3//1 89//1 4//1
f 2//1 89//1 3//1
f 1//1 89//1 2//1
f 153//2 151//2 152//2
f 153//2 150//2 151//2
f 153//2 149//2 150//2
f 154//2 149//2 153//2
f 154//2 148//2 149//2
f 155//2 148//2 154//2
f 155//2 147//2 148//2
f 155//2 146//2 147//2
f 156//2 146//2 155//2
f 156//2 145//2 146//2
f 156//2 144//2 145//2
f 157//2 144//2 156//2
f 157//2 143//2 144//2
f 157//2 142//2 143//2
f 158//2 142//2 157//2
f 158//2 141//2 142//2
f 158//2 140//2 141//2
f 159//2 140//2 158//2
f 138//2 139//2 140//2
f 137//2 138//2 140//2
f 136//2 137//2 140//2
f 135//2 136//2 140//2
f 134//2 135//2 140//2
f 133//2 134//2 140//2
f 132//2 133//2 140//2
f 131//2 132//2 140//2
f 130//2 131//2 140//2
f 129//2 130//2 140//2
f 128//2 129//2 140//2
f 159//2 128//2 140//2
f 127//2 128//2 159//2
f 160//2 127//2 159//2
f 160//2 126//2 127//2
f 160//2 125//2 126//2
f 160//2 124//2 125//2
f 161//2 124//2 160//2
f 161//2 123//2 124//2
f 161//2 122//2 123//2
f 161//2 121//2 122//2
f 162//2 121//2 161//2
f 162//2 120//2 121//2
f 162//2 119//2 120//2
f 163//2 119//2 162//2
f 163//2 118//2 119//2
f 163//2 117//2 118//2
f 164//2 117//2 163//2
f 164//2 116//2 117//2
f 164//2 115//2 116//2
f 165//2 115//2 164//2
f 165//2 114//2 115//2
f 165//2 113//2 114//2
f 166//2 113//2 165//2
f 166//2 112//2 113//2
f 166//2 111//2 112//2
f 167//2 111//2 166//2
f 167//2 110//2 111//2
f 167//2 109//2 110//2
f 168//2 109//2 167//2
f 168//2 108//2 109//2
f 168//2 107//2 108//2
f 168//2 106//2 107//2
f 169//2 106//2 168//2
f 169//2 105//2 106//2
f 169//2 104//2 105//2
f 170//2 104//2 169//2
f 170//2 103//2 104//2
f 170//2 102//2 103//2
f 171//2 102//2 170//2
f 171//2 101//2 102//2
f 172//2 101//2 171//2
f 172//2 100//2 101//2
f 173//2 100//2 172//2
f 173//2 99//2 100//2
f 173//2 98//2 99//2
f 174//2 98//2 173//2
f 174//2 97//2 98//2
f 175//2 97//2 174//2
f 175//2 96//2 97//2
f 176//2 96//2 175//2
f 176//2 95//2 96//2
f 176//2 94//2 95//2
f 177//2 94//2 176//2
f 178//2 94//2 177//2
f 178//2 93//2 94//2
f 178//2 92//2 93//2
f 178//2 91//2 92//2
f 178//2 90//2 91//2
s 1
f 180//3 182//4 181//4
f 182//4 184//5 183//5
f 184//5 186//6 185//6
f 186//6 188//7 187//7
f 188//7 190//8 189//8
f 190//8 192//9 191//9
f 192//9 194//10 193//10
f 194//10 196//11 195//11
f 196//11 198//12 197//12
f 198//12 200//13 199//13
f 200//13 202//14 201//14
f 202//14 204//15 203//15
f 204//15 206//16 205//16
f 206//16 208//17 207//17
f 208//17 210//18 209//18
f 210//18 212//19 211//19
f 212//19 214//20 213//20
f 214//20 216//21 215//21
f 216//21 218//22 217//22
f 218//22 220//23 219//23
f 220//23 222//24 221//24
f 222//24 224//25 223//25
f 224//25 226//26 225//26
f 226//26 228//27 227//27
f 228//27 230//28 229//28
f 230//28 232//29 231//29
f 232//29 234//30 233//30
f 234//30 236//31 235//31
f 236//31 238//32 237//32
f 238//32 240//33 239//33
f 240//33 242//34 241//34
f 242//34 244//35 243//35
f 244//35 246//36 245//36
f 246//36 248//37 247//37
f 248//37 250//38 249//38
f 250//38 252//39 251//39
f 252//39 254//40 253//40
f 254//40 256//41 255//41
f 256//41 258//42 257//42
f 258//42 260//43 259//43
f 260//43 262//44 261//44
f 262//44 264//45 263//45
f 264//45 266//46 265//46
f 266//46 268//47 267//47
f 268//47 270//48 269//48
f 270//48 272//49 271//49
f 272//49 274//50 273//50
f 274//50 276//51 275//51
f 276//51 278//52 277//52
f 278//52 280//53 279//53
f 280//53 282//54 281//54
f 282//54 284//55 283//55
f 284//55 286//56 285//56
f 286//56 288//57 287//57
f 288//57 290//58 289//58
f 290//58 292//59 291//59
f 292//59 294//60 293//60
f 294//60 296//61 295//61
f 296//61 298//62 297//62
f 298//62 300//63 299//63
f 300//63 302//64 301//64
f 302//64 304//65 303//65
f 304//65 306//66 305//66
f 306//66 308//67 307//67
f 308//67 310//68 309//68
f 310//68 312//69 311//69
f 312//69 314//70 313//70
f 314//70 316//71 315//71
f 316//71 318//72 317//72
f 318//72 320//73 319//73
f 320//73 322//74 321//74
f 322//74 324//75 323//75
f 324//75 326//76 325//76
f 326//76 328//77 327//77
f 328//77 330//78 329//78
f 330//78 332//79 331//79
f 332//79 334//80 333//80
f 334//80 336//81 335//81
f 336//81 338//82 337//82
f 338//82 340//83 339//83
f 340//83 342//84 341//84
f 342//84 344//85 343//85
f 344//85 346//86 345//86
f 346//86 348//87 347//87
f 348//87 350//88 349//88
f 350//88 352//89 351//89
f 352//89 354//90 353//90
f 354//90 356//91 355//91
f 356//91 180//3 179//3
f 179//3 180//3 181//4
f 181//4 182//4 183//5
f 183//5 184//5 185//6
f 185//6 186//6 187//7
f 187//7 188//7 189//8
f 189//8 190//8 191//9
f 191//9 192//9 193//10
f 193//10 194//10 195//11
f 195//11 196//11 197//12
f 197//12 198//12 199//13
f 199//13 200//13 201//14
f 201//14 202//14 203//15
f 203//15 204//15 205//16
f 205//16 206//16 207//17
f 207//17 208//17 209//18
f 209//18 210//18 211//19
f 211//19 212//19 213//20
f 213//20 214//20 215//21
f 215//21 216//21 217//22
f 217//22 218//22 219//23
f 219//23 220//23 221//24
f 221//24 222//24 223//25
f 223//25 224//25 225//26
f 225//26 226//26 227//27
f 227//27 228//27 229//28
f 229//28 230//28 231//29
f 231//29 232//29 233//30
f 233//30 234//30 235//31
f 235//31 236//31 237//32
f 237//32 238//32 239//33
f 239//33 240//33 241//34
f 241//34 242//34 243//35
f 243//35 244//35 245//36
f 245//36 246//36 247//37
f 247//37 248//37 249//38
f 249//38 250//38 251//39
f 251//39 252//39 253//40
f 253//40 254//40 255//41
f 255//41 256//41 257//42
f 257//42 258//42 259//43
f 259//43 260//43 261//44
f 261//44 262//44 263//45
f 263//45 264//45 265//46
f 265//46 266//46 267//47
f 267//47 268//47 269//48
f 269//48 270//48 271//49
f 271//49 272//49 273//50
f 273//50 274//50 275//51
f 275//51 276//51 277//52
f 277//52 278//52 279//53
f 279//53 280//53 281//54
f 281//54 282//54 283//55
f 283//55 284//55 285//56
f 285//56 286//56 287//57
f 287//57 288//57 289//58
f 289//58 290//58 291//59
f 291//59 292//59 293//60
f 293//60 294//60 295//61
f 295//61 296//61 297//62
f 297//62 298//62 299//63
f 299//63 300//63 301//64
f 301//64 302//64 303//65
f 303//65 304//65 305//66
f 305//66 306//66 307//67
f 307//67 308//67 309//68
f 309//68 310//68 311//69
f 311//69 312//69 313//70
f 313//70 314//70 315//71
f 315//71 316//71 317//72
f 317//72 318//72 319//73
f 319//73 320//73 321//74
f 321//74 322//74 323//75
f 323//75 324//75 325//76
f 325//76 326//76 327//77
f 327//77 328//77 329//78
f 329//78 330//78 331//79
f 331//79 332//79 333//80
f 333//80 334//80 335//81
f 335//81 336//81 337//82
f 337//82 338//82 339//83
f 339//83 340//83 341//84
f 341//84 342//84 343//85
f 343//85 344//85 345//86
f 345//86 346//86 347//87
f 347//87 348//87 349//88
f 349//88 350//88 351//89
f 351//89 352//89 353//90
f 353//90 354//90 355//91
f 355//91 356//91 179//3
